<svg width="62" height="61" viewBox="0 0 62 61" fill="none" xmlns="http://www.w3.org/2000/svg">
<path d="M52.5956 8.94291C53.6212 18.7947 47.5573 24.8538 47.482 24.9266C43.9103 28.4971 37.9087 29.2296 34.2939 29.323C37.0658 26.4351 41.2986 21.0407 41.2986 15.033C41.301 14.8644 41.301 13.1647 40.7165 10.7477C43.8374 9.21651 49.0276 8.21735 52.5956 8.94291ZM38.7276 15.0128C38.7276 20.063 34.9992 24.825 32.5084 27.4478C32.4259 23.4447 31.6059 16.6386 27.3577 12.3903C27.2394 12.2696 26.0369 11.0695 23.9152 9.77377C25.0376 6.48302 28.001 2.1081 31.0405 0.0927734C38.7337 6.33461 38.73 14.9075 38.7276 15.0128ZM9.54136 9.07933C19.3848 8.05612 25.451 14.1177 25.5263 14.1929C29.0967 17.7646 29.8284 23.7674 29.9226 27.3832C27.0347 24.6112 21.6404 20.3785 15.6351 20.3785C15.4594 20.382 13.762 20.3832 11.3498 20.9642C9.81624 17.842 8.81583 12.6522 9.54136 9.07933ZM0.692383 30.6344C6.95595 22.9161 15.5359 22.9593 15.6124 22.9486C20.6627 22.9486 25.4247 26.6769 28.0475 29.1665C24.0443 29.249 17.2382 30.069 12.99 34.3172C12.8693 34.4343 11.6668 35.6368 10.3711 37.7585C7.07908 36.6361 2.70527 33.6727 0.692383 30.6344ZM9.67875 52.1335C8.65316 42.2818 14.7171 36.2226 14.7924 36.1498C18.364 32.5782 24.3656 31.8456 27.9817 31.7523C25.2097 34.6402 20.9757 40.0345 20.9757 46.0423C20.9734 46.2108 20.9733 47.9106 21.5578 50.3275C18.4382 51.8611 13.2467 52.8603 9.67875 52.1335ZM31.2329 60.9825C23.5422 54.7416 23.5446 46.169 23.5471 46.0637C23.5471 41.0134 27.2754 36.2514 29.7663 33.6287C29.8488 37.6318 30.6687 44.4379 34.9169 48.6849C35.034 48.8056 36.2282 50.0105 38.357 51.3086C37.231 54.5994 34.2703 58.9696 31.2329 60.9825ZM52.7333 51.9974C42.8861 53.0218 36.8224 46.9578 36.7483 46.8825C33.1779 43.3121 32.4462 37.3093 32.352 33.6932C35.2399 36.4652 40.6342 40.6979 46.6395 40.6979H46.7113C47.0878 40.6979 48.7015 40.6609 50.9283 40.1206C52.4607 43.244 53.4576 48.4282 52.7333 51.9974ZM61.5823 30.4423C55.3187 38.1606 46.7424 38.1413 46.6622 38.1281C41.607 38.1281 36.8389 34.3928 34.2189 31.9016C38.215 31.8239 45.0211 31.023 49.2846 26.7592C49.4054 26.6421 50.6079 25.4396 51.9036 23.3179C55.1956 24.4403 59.5692 27.4037 61.5821 30.442L61.5823 30.4423Z" fill="#444444"/>
</svg>
