<svg width="25" height="99" viewBox="0 0 25 99" fill="none" xmlns="http://www.w3.org/2000/svg">
<path d="M12.6393 54.2318C12.2646 53.6926 11.9201 53.2089 11.596 52.7652C11.2901 52.3455 10.9344 51.8695 10.5576 51.3746C10.5393 51.3514 10.5224 51.3261 10.5055 51.3022C9.24215 49.6394 7.98939 47.9578 7.14563 46.0912C7.1154 46.0342 7.08869 45.9752 7.06198 45.9182C6.54102 44.9522 5.6629 44.6429 4.84604 44.3574C4.63441 44.2836 4.42632 44.2098 4.22805 44.1303C3.00544 43.6396 1.83069 42.7411 1.08683 41.5804C0.426656 40.549 0.0990364 39.3158 0.356356 37.9751C0.404867 37.7249 0.472359 37.4865 0.558133 37.2616C0.873803 36.4298 1.4264 35.7901 2.12032 35.3971C2.81775 35.0027 3.64595 34.8593 4.51066 35.0245C4.73564 35.0681 4.96412 35.1321 5.19403 35.2192C6.44899 35.6966 7.28218 36.6317 7.77281 37.7523C8.33245 39.0291 8.43649 40.549 8.20588 41.868C8.18549 41.979 8.15386 42.1499 8.12222 42.3214C7.94435 43.2537 7.75804 44.2316 8.28041 45.3538C8.3022 45.3973 8.324 45.443 8.34579 45.488C8.35423 45.5035 8.36266 45.5183 8.36899 45.5351C8.4161 45.6392 8.46461 45.7432 8.51523 45.8473C8.08356 40.526 10.9999 34.5641 13.5245 30.3505C15.4564 26.2264 14.2936 23.1007 12.3708 20.1857C11.996 19.6464 11.6515 19.1627 11.3274 18.7191C11.0216 18.2994 10.6658 17.8234 10.289 17.3285C10.2792 17.3151 10.2686 17.2996 10.2602 17.2863C8.99048 15.613 7.72713 13.9235 6.87708 12.045C6.84685 11.9881 6.82013 11.929 6.79341 11.8721C6.27246 10.9061 5.39434 10.5967 4.57748 10.3113C4.36585 10.2375 4.15776 10.1637 3.95949 10.0842C2.73687 9.59347 1.56213 8.69497 0.818268 7.53423C0.158095 6.50284 -0.169525 5.2697 0.0877953 3.92901C0.136306 3.67873 0.203798 3.4404 0.289572 3.21542C0.605242 2.38371 1.15784 1.74392 1.85176 1.35099C2.54919 0.956576 3.3774 0.813149 4.2421 0.978372C4.46708 1.02196 4.69556 1.08594 4.92547 1.17311C6.18043 1.65048 7.01362 2.58556 7.50425 3.70618C8.06389 4.98293 8.16794 6.50291 7.93733 7.82182C7.91694 7.9329 7.8853 8.10374 7.85366 8.27528C7.67579 9.20754 7.48949 10.1854 8.01185 11.3076C8.03364 11.3512 8.05544 11.3969 8.07723 11.4419C8.08567 11.4574 8.09411 11.4721 8.10044 11.489C8.89489 13.2459 10.1063 14.8685 11.3275 16.4765C11.3395 16.4898 11.3507 16.5032 11.3627 16.5187C11.4618 16.648 11.5644 16.7858 11.6734 16.93C13.9261 19.8982 16.083 22.8582 15.8861 26.6497L15.9149 26.6061C16.1821 26.2033 16.412 25.8566 16.5448 25.65C16.5786 25.5895 16.6137 25.5304 16.6489 25.4735C17.1832 24.504 16.9596 23.5956 16.7515 22.7505C16.6946 22.5206 16.639 22.2935 16.6018 22.1108C16.3431 20.8206 16.4541 19.3457 17.0215 18.0858C17.5235 16.9701 18.377 16.0231 19.6404 15.5042C19.8837 15.405 20.1206 15.3298 20.3526 15.2792C21.2181 15.0894 22.0561 15.2033 22.7647 15.5682C23.4755 15.9344 24.0478 16.551 24.3825 17.3659C24.4731 17.5859 24.5435 17.8144 24.5955 18.0478C24.883 19.3562 24.5533 20.564 23.8847 21.587C23.1205 22.7527 21.9042 23.6715 20.6711 24.2023C20.6205 24.2241 20.4328 24.3014 20.2444 24.3788C19.3726 24.7366 18.4586 25.1128 17.8054 26.1491C17.7717 26.2081 17.7365 26.2665 17.6993 26.3255C17.6894 26.341 17.681 26.3558 17.669 26.3712C17.4644 26.6918 17.2641 26.9927 17.0307 27.3457C16.4176 28.2681 15.5859 29.5195 14.7057 30.9862C14.6874 31.0262 14.6684 31.067 14.6487 31.1057C14.6185 31.1675 14.5798 31.2252 14.5348 31.2737C11.2712 36.7738 7.48816 45.0922 11.6319 50.5642C11.731 50.6935 11.8337 50.8313 11.9426 50.9754C14.1663 53.9086 16.3002 56.8333 16.1611 60.5588L16.218 60.4695C16.3038 60.3366 16.3811 60.2157 16.5421 59.9654C16.5773 59.9049 16.611 59.8459 16.6462 59.7875C17.1805 58.818 16.9569 57.9096 16.7488 57.0646C16.6919 56.8347 16.6363 56.6076 16.5991 56.4248C16.3403 55.1347 16.4514 53.6597 17.0188 52.3998C17.5208 51.2841 18.3743 50.3371 19.6377 49.8182C19.881 49.7191 20.1179 49.6438 20.3499 49.5932C21.2153 49.4034 22.0534 49.5173 22.762 49.8822C23.4728 50.2485 24.0451 50.865 24.3797 51.6799C24.4704 51.8999 24.5407 52.1284 24.5928 52.3619C24.8803 53.6702 24.5506 54.878 23.882 55.901C23.1178 57.0667 21.9014 57.9856 20.6684 58.5163C20.6178 58.5381 20.4301 58.6155 20.2416 58.6928C19.3698 59.0507 18.4559 59.4268 17.8027 60.4631C17.769 60.5221 17.7338 60.5805 17.6965 60.6395C17.6867 60.655 17.6762 60.6712 17.6663 60.6852C17.6129 60.7675 17.4814 60.9707 17.3387 61.1929C16.7376 62.1216 15.8517 63.4939 14.9181 65.1488L14.9167 65.1503C14.9034 65.177 14.89 65.2023 14.8731 65.2262C11.8978 70.5146 8.47459 78.6433 12.2107 84.558C12.449 84.9363 12.7464 85.2801 13.0761 85.633C13.718 86.2763 14.3275 86.9245 14.8583 87.6184C14.8752 87.6388 14.8921 87.6606 14.9069 87.6824C15.07 87.8989 15.226 88.1211 15.3723 88.3475C16.0106 89.3388 16.4627 90.4257 16.6033 91.7037C16.7425 92.9622 16.5766 94.3916 15.9832 96.0746C15.9431 96.1871 15.901 96.3214 15.8574 96.4627C15.7266 96.881 15.5818 97.338 15.3751 97.6691C15.1536 98.0235 14.8323 98.3497 14.3669 98.5121C13.9268 98.6668 13.3889 98.6618 12.7393 98.3708C12.702 98.3553 12.6669 98.337 12.6332 98.3173C12.4433 98.1978 12.2837 98.0755 12.1494 97.951C11.6285 97.4673 11.4689 96.9485 11.4689 96.4999C11.4689 96.0514 11.6383 95.6872 11.7628 95.489C11.8162 95.4053 11.8703 95.3364 11.9055 95.2977C13.0543 94.0596 13.8255 92.7526 14.1398 91.5132C14.4252 90.3898 14.3282 89.3225 13.7869 88.4289C13.6709 88.2777 13.5513 88.1301 13.4276 87.9803C13.1098 87.6077 12.7942 87.2801 12.4968 86.9693C12.3639 86.8315 12.2331 86.6959 12.1073 86.5609C11.8823 86.3359 11.6538 86.1109 11.4239 85.8824C9.8399 84.3216 8.18008 82.6856 7.14716 80.4014C7.11693 80.3424 7.09021 80.2854 7.0635 80.2285C6.54254 79.2625 5.66442 78.9532 4.84756 78.6677C4.63594 78.5939 4.42784 78.5201 4.22957 78.4406C3.00696 77.9499 1.83222 77.0514 1.08835 75.8906C0.428178 74.8593 0.100558 73.6261 0.357878 72.2854C0.406388 72.0351 0.47388 71.7968 0.559654 71.5718C0.875324 70.7401 1.42792 70.1003 2.12184 69.7074C2.81927 69.313 3.64748 69.1696 4.51218 69.3348C4.73716 69.3784 4.96564 69.4424 5.19555 69.5295C6.45051 70.0069 7.2837 70.942 7.77433 72.0626C8.33397 73.3394 8.43801 74.8593 8.2074 76.1782C8.18702 76.2893 8.15538 76.4602 8.12374 76.6317C7.94587 77.564 7.75957 78.5419 8.28193 79.664C8.30373 79.7076 8.32552 79.7533 8.34731 79.7983C8.35575 79.8138 8.36419 79.8286 8.37052 79.8454C8.72344 80.6265 9.16849 81.3338 9.66414 81.9904C8.12374 76.0658 11.0934 69.2272 13.7096 64.5758L13.7131 64.5687C15.7611 60.3575 14.5933 57.1839 12.6431 54.2297L12.6393 54.2318ZM18.0499 22.4362C18.1589 22.8798 18.2714 23.3368 18.3157 23.817C18.7811 23.5379 19.2613 23.3397 19.7337 23.147C19.8258 23.1097 19.9165 23.0711 20.1401 22.9755C21.1532 22.5389 22.1473 21.7943 22.7605 20.8585C23.2442 20.1196 23.4846 19.2577 23.2828 18.3373C23.2456 18.1693 23.1992 18.0167 23.1436 17.8803C22.9334 17.3699 22.5826 16.9882 22.1509 16.7646C21.7178 16.541 21.1919 16.4742 20.6358 16.5966C20.4713 16.6338 20.3082 16.6823 20.15 16.7477C19.236 17.1224 18.6146 17.8178 18.2447 18.6411C17.7962 19.6352 17.7125 20.8149 17.9206 21.8527C17.9642 22.0714 18.0099 22.2528 18.0549 22.4356L18.0499 22.4362ZM5.28813 43.0945C5.71979 43.2457 6.16484 43.4018 6.59019 43.6289C6.61058 43.0861 6.7076 42.5771 6.80321 42.0765C6.82641 41.9507 6.85032 41.8262 6.88195 41.6434C7.07178 40.553 6.99093 39.3136 6.54239 38.2891C6.18804 37.4813 5.59818 36.8092 4.72007 36.4767C4.56399 36.4176 4.40931 36.3741 4.25676 36.3438C3.714 36.2398 3.20147 36.3255 2.78035 36.5639C2.355 36.8057 2.01262 37.2072 1.81084 37.7366C1.75179 37.8891 1.70679 38.0544 1.67304 38.2301C1.48672 39.201 1.72999 40.1016 2.2158 40.8588C2.80565 41.7791 3.74424 42.4969 4.72708 42.8899C4.90987 42.9637 5.0969 43.0291 5.28813 43.0945ZM5.01745 9.05097C5.44912 9.20212 5.89416 9.3582 6.31951 9.5853C6.3399 9.04255 6.43692 8.53352 6.53254 8.03296C6.55574 7.90711 6.57964 7.78267 6.61128 7.59988C6.80111 6.50945 6.72025 5.27002 6.27171 4.24556C5.91736 3.43775 5.32751 2.76563 4.44939 2.43315C4.29332 2.37409 4.13863 2.3305 3.98608 2.30027C3.44333 2.19622 2.93079 2.28199 2.50967 2.52033C2.08432 2.76219 1.74194 3.16362 1.54017 3.69302C1.48111 3.84558 1.43612 4.0108 1.40237 4.18657C1.21605 5.15748 1.45932 6.05802 1.94512 6.8152C2.53498 7.7355 3.47356 8.45332 4.45641 8.8463C4.6392 8.92012 4.82622 8.98559 5.01745 9.05097ZM15.3045 92.3195C14.8777 93.6251 14.0545 94.9588 12.8958 96.2068C12.8585 96.2673 12.8065 96.3748 12.8065 96.5042C12.8065 96.6321 12.8656 96.7917 13.0617 96.9731C13.1306 97.0371 13.2129 97.1011 13.3106 97.1644C13.5911 97.2867 13.788 97.3007 13.9251 97.2515C14.0509 97.2079 14.1536 97.0933 14.2344 96.964C14.3518 96.7742 14.47 96.4043 14.5754 96.0669C14.6239 95.9143 14.6696 95.7681 14.7181 95.6317C15.1653 94.3634 15.3382 93.275 15.3024 92.3175L15.3045 92.3195ZM12.8958 96.2068L12.8874 96.2152C12.8824 96.2202 12.8923 96.2103 12.8958 96.2068ZM5.28598 77.4077C5.71765 77.5589 6.16269 77.7149 6.58805 77.942C6.60843 77.3993 6.70545 76.8902 6.80107 76.3897C6.82427 76.2638 6.84818 76.1394 6.87981 75.9566C7.06964 74.8662 6.98879 73.6267 6.54024 72.6023C6.1859 71.7945 5.59604 71.1224 4.71793 70.7899C4.56185 70.7308 4.40717 70.6872 4.25461 70.657C3.71186 70.5529 3.19933 70.6387 2.77821 70.8771C2.35286 71.1189 2.01048 71.5204 1.8087 72.0497C1.74965 72.2023 1.70465 72.3675 1.6709 72.5433C1.48459 73.5142 1.72785 74.4147 2.21365 75.1719C2.80351 76.0922 3.7421 76.81 4.72494 77.203C4.90773 77.2768 5.09475 77.3423 5.28598 77.4077ZM18.0478 56.7494C18.1567 57.193 18.2692 57.65 18.3135 58.1302C18.779 57.8511 19.2591 57.6528 19.7316 57.4602C19.8237 57.4229 19.9144 57.3842 20.138 57.2886C21.1511 56.852 22.1451 56.1075 22.7583 55.1717C23.242 54.4328 23.4825 53.5708 23.2807 52.6505C23.2434 52.4825 23.197 52.3299 23.1415 52.1935C22.9312 51.6831 22.5804 51.3013 22.1488 51.0778C21.7157 50.8542 21.1898 50.7874 20.6337 50.9097C20.4692 50.947 20.3061 50.9955 20.1479 51.0609C19.2339 51.4356 18.6124 52.1309 18.2426 52.9543C17.794 53.9484 17.7104 55.1281 17.9185 56.1659C17.9621 56.3845 18.0078 56.5659 18.0528 56.7487L18.0478 56.7494Z" fill="white"/>
</svg>
