<svg width="24" height="22" viewBox="0 0 24 22" fill="none" xmlns="http://www.w3.org/2000/svg">
<path d="M0.383423 18.1985C2.88427 18.3392 5.07116 17.7546 7.20392 16.2065C5.04951 15.8384 3.5555 14.8532 2.74354 12.8179C3.37146 12.7313 3.9236 12.8937 4.57317 12.6338C2.45123 11.7028 1.0763 10.3062 1.02217 7.89197C1.69339 7.9461 2.20223 8.38997 3.00337 8.32502C1.05465 6.41961 0.459206 4.34098 1.68257 1.81847C3.71789 4.15693 6.09966 5.74838 9.01191 6.49539C9.1743 6.53869 9.32585 6.582 9.48825 6.61448C10.2353 6.7877 11.123 7.15579 11.5777 7.10166C12.3572 7.00422 11.5777 6.10565 11.7726 4.93642C12.3897 1.29882 16.3954 -0.35759 19.3617 1.77517C20.2278 2.40309 20.9099 2.39226 21.7652 2.01335C22.209 1.81847 22.6637 1.6236 23.1942 1.39625C23.0751 2.43557 22.274 3.00936 21.6352 3.77801C22.3606 3.94041 22.9452 3.73471 23.6164 3.51819C23.3891 4.26519 22.8261 4.68742 22.3173 5.09881C21.7868 5.52103 21.5811 5.96491 21.5595 6.65778C21.2347 17.1484 9.31504 25.2572 1.16292 18.8048C0.372605 18.1769 1.14126 18.8048 0.383423 18.1985Z" fill="white"/>
</svg>
